<svg xmlns="http://www.w3.org/2000/svg" viewBox="0 0 49 21.34">
  <title>Ресурс 5</title>
  <g id="48ecf45d-b422-4a00-974f-908683c082f9" data-name="Слой 2">
    <g id="ea4a5aca-dc87-4764-b8b8-d090ffda07ab" data-name="Слой 1">
      <path fill="#fff" d="M48.17,6.71H47l.08,13.58a1,1,0,0,1-.95,1.05H46a1.08,1.08,0,0,1-1.07-1.06L44.84,7.82H42.48V9.49a1.78,1.78,0,0,1-1.76,1.8h-.41a1.83,1.83,0,0,1-1.81-1.8V6.66H35.05v4a.81.81,0,0,1-.8.82h0a.84.84,0,0,1-.83-.83v-4H28.78v4a.81.81,0,0,1-.8.82h0a.84.84,0,0,1-.83-.83v-4H22.51v4a.81.81,0,0,1-.8.82h0a.84.84,0,0,1-.83-.83v-4H16.24v4a.81.81,0,0,1-.8.82h0a.84.84,0,0,1-.83-.83v-4L10,6.49v4a.81.81,0,0,1-.8.82h0a.84.84,0,0,1-.83-.83v-4H3.72v4a.81.81,0,0,1-.8.82h0a.84.84,0,0,1-.83-.83v-4H.83A.84.84,0,0,1,0,5.64a.81.81,0,0,1,.8-.82H2v-4A.81.81,0,0,1,2.79,0h0a.84.84,0,0,1,.83.83v4H8.26v-4A.81.81,0,0,1,9.06,0h0a.84.84,0,0,1,.83.83v4h4.62v-4a.81.81,0,0,1,.8-.82h0a.84.84,0,0,1,.83.83v4H20.8v-4A.81.81,0,0,1,21.6,0h0a.84.84,0,0,1,.83.83v4h4.62v-4a.81.81,0,0,1,.8-.82h0a.84.84,0,0,1,.83.83v4h4.62v-4a.81.81,0,0,1,.8-.82h0A.84.84,0,0,1,35,.88v4h3.45V2.05A1.77,1.77,0,0,1,40.2.27h.42a1.83,1.83,0,0,1,1.82,1.8v1.6h2.38V1.09A1,1,0,0,1,45.77,0h.11A1.08,1.08,0,0,1,47,1.26v3.8h1.18a.84.84,0,0,1,.83.83.81.81,0,0,1-.8.82ZM39.65,9.49a.66.66,0,0,0,.66.66h.38a.65.65,0,0,0,.65-.65h0V6.67H39.63Zm1-8h-.38a.65.65,0,0,0-.65.65h0V5h1.69V2.14a.67.67,0,0,0-.68-.65Z"/>
    </g>
  </g>
</svg>
