<?xml version="1.0" encoding="UTF-8"?>
<svg data-name="Слой 1" width="51" height="39" viewBox="0 0 51 39" xmlns="http://www.w3.org/2000/svg">
<defs>
<style>.\30 597dbfb-9ffe-43e1-899e-7275effcbd0e, .\35 382fabf-206c-4823-89ac-3d2a629ecffe {
        fill: #fff;
      }
      .\35 382fabf-206c-4823-89ac-3d2a629ecffe {
        fill-rule: evenodd;
      }
			@-webkit-keyframes gear {
				100% {
					-webkit-transform: translateX( -26px ) translateY(-31px) rotate(0deg);
					        transform: translateX( -26px ) translateY(-31px) rotate(0deg);
				}
				0% {
					-webkit-transform: translateX( -26px ) translateY(-31px) rotate(3deg);
					        transform: translateX( -26px ) translateY(-31px) rotate(3deg);
				}
			}

			@keyframes gear {
				100% {
					-webkit-transform: translateX( -26px ) translateY(-31px) rotate(0deg);
					        transform: translateX( -26px ) translateY(-31px) rotate(0deg);
				}
				0% {
					-webkit-transform: translateX( -26px ) translateY(-31px) rotate(3deg);
					        transform: translateX( -26px ) translateY(-31px) rotate(3deg);
				}
			}
			#gear1 {
				-webkit-animation: gear infinite .9s linear;
				        animation: gear infinite .9s linear;
			}
</style>
</defs>
<title>antenna</title>
<path class="5382fabf-206c-4823-89ac-3d2a629ecffe" transform="translate(-26.01 -31.49)" d="m172 537.5s-1.15 2.22 0 3 4-1 4-1 3 11.22-4 12-18.74 2.09-19-1 0-11 0-11z"/>
<path id="gear1" class="0597dbfb-9ffe-43e1-899e-7275effcbd0e" transform="translate(-26.01 -31.49)" d="M42.59,58.47a4.57,4.57,0,0,1,.86-.64L43.32,57a.51.51,0,0,1,.38-.58l1.2-.31a.54.54,0,0,1,.63.32l.31.76a4.78,4.78,0,0,1,1.13.15l.49-.65a.53.53,0,0,1,.69-.13l1.09.63a.53.53,0,0,1,.23.66l-.31.72a4.84,4.84,0,0,1,.76,1l.78-.1a.54.54,0,0,1,.59.39l.34,1.2a.51.51,0,0,1-.31.62l-.72.28a4.48,4.48,0,0,1-.14,1.17l.61.45a.53.53,0,0,1,.15.68l-.61,1.06a.52.52,0,0,1-.67.21l-.68-.3a4.46,4.46,0,0,1-.92.7l.11.71a.51.51,0,0,1-.38.58l-1.2.3a.54.54,0,0,1-.63-.32L46,66.53a4.76,4.76,0,0,1-1.24-.17l-.42.57a.53.53,0,0,1-.69.13l-1.09-.63a.53.53,0,0,1-.23-.66l.28-.65a4.74,4.74,0,0,1-.78-1l-.72.1a.54.54,0,0,1-.59-.39l-.34-1.2a.51.51,0,0,1,.31-.62l.72-.27a4.41,4.41,0,0,1,.16-1.16l-.63-.46a.53.53,0,0,1-.15-.68l.61-1.06a.52.52,0,0,1,.66-.21Zm2.29,5.15a2,2,0,1,0-.79-2.8A2,2,0,0,0,44.88,63.63Z"/>
<path id="gear2" class="0597dbfb-9ffe-43e1-899e-7275effcbd0e" transform="translate(-26.01 -31.49)" d="M57.43,66.72l-.85.14a.54.54,0,0,1-.6-.37L55.84,66a3.86,3.86,0,0,1-1-.22l-.34.38a.53.53,0,0,1-.69.07l-.71-.5a.52.52,0,0,1-.17-.67l.24-.44a3.85,3.85,0,0,1-.57-.88l-.52,0a.53.53,0,0,1-.55-.43l-.16-.84a.5.5,0,0,1,.36-.58l.53-.15a3.77,3.77,0,0,1,.21-.93L52,60.47a.52.52,0,0,1-.09-.68l.48-.69a.52.52,0,0,1,.67-.15l.52.28a3.75,3.75,0,0,1,.75-.47l0-.59a.5.5,0,0,1,.42-.54l.85-.14a.54.54,0,0,1,.6.37l.18.56a3.84,3.84,0,0,1,.91.2l.39-.44a.53.53,0,0,1,.69-.08l.71.5a.52.52,0,0,1,.17.67l-.27.5a3.94,3.94,0,0,1,.55.83l.57,0a.54.54,0,0,1,.55.43l.16.84a.5.5,0,0,1-.36.58l-.53.15a3.64,3.64,0,0,1-.19.95l.4.35a.52.52,0,0,1,.09.68l-.48.69a.52.52,0,0,1-.67.15l-.47-.25a3.69,3.69,0,0,1-.8.51l0,.51A.5.5,0,0,1,57.43,66.72ZM57,60.86a1.66,1.66,0,1,0,.45,2.33A1.68,1.68,0,0,0,57,60.86Z"/>
<path id="gear3" class="0597dbfb-9ffe-43e1-899e-7275effcbd0e" transform="translate(-26.01 -31.49)" d="M48.92,53.53a.52.52,0,0,1-.16-.67l.25-.45a.51.51,0,0,1,.65-.22l.36.15a2.93,2.93,0,0,1,.57-.44l-.07-.39a.5.5,0,0,1,.37-.57l.51-.14a.53.53,0,0,1,.63.31l.15.36a3.08,3.08,0,0,1,.75.09l.23-.32a.52.52,0,0,1,.68-.14l.46.26a.52.52,0,0,1,.23.65l-.14.35a3.24,3.24,0,0,1,.51.63L55.3,53a.53.53,0,0,1,.59.38l.15.51a.5.5,0,0,1-.3.61l-.34.13a3,3,0,0,1-.08.78l.28.2a.52.52,0,0,1,.16.67l-.25.45a.51.51,0,0,1-.65.22l-.32-.13a3,3,0,0,1-.61.48l.06.33a.5.5,0,0,1-.37.57l-.51.14a.54.54,0,0,1-.63-.31l-.13-.29a3.12,3.12,0,0,1-.82-.1l-.19.26a.52.52,0,0,1-.68.14l-.46-.26a.52.52,0,0,1-.23-.65l.12-.3a3.21,3.21,0,0,1-.53-.67l-.33,0a.53.53,0,0,1-.59-.38l-.15-.51a.5.5,0,0,1,.3-.61l.34-.13a3,3,0,0,1,.1-.77Zm2.68,2.23a1.35,1.35,0,1,0-.55-1.86A1.36,1.36,0,0,0,51.61,55.77Z"/>
<path class="0597dbfb-9ffe-43e1-899e-7275effcbd0e" transform="translate(-26.01 -31.49)" d="M74.18,38.22H73l.08,13.58A1,1,0,0,1,72,52.85a1.08,1.08,0,0,1-1.07-1.06l-.08-12.46H68.49V41A1.78,1.78,0,0,1,66.7,42.8h-.38A1.83,1.83,0,0,1,64.51,41l0-2.83-3.45,0,0,4a.81.81,0,0,1-.82.82.84.84,0,0,1-.83-.83l0-4-4.62,0,0,4a.81.81,0,0,1-.82.82.84.84,0,0,1-.83-.83l0-4-4.62,0,0,4a.81.81,0,0,1-.82.82.84.84,0,0,1-.83-.83l0-4-4.62,0,0,4a.81.81,0,0,1-.82.82.84.84,0,0,1-.83-.83l0-4L36,38l0,4a.81.81,0,0,1-.82.82.84.84,0,0,1-.83-.83l0-4-4.62,0,0,4a.81.81,0,0,1-.82.82.84.84,0,0,1-.83-.83l0-4H26.84a.84.84,0,0,1-.83-.83.81.81,0,0,1,.82-.82H28l0-4a.81.81,0,0,1,.82-.82.84.84,0,0,1,.83.83l0,4,4.62,0,0-4a.81.81,0,0,1,.82-.82.84.84,0,0,1,.83.83l0,4,4.62,0,0-4a.81.81,0,0,1,.82-.82.84.84,0,0,1,.83.83l0,4,4.62,0,0-4a.81.81,0,0,1,.82-.82.84.84,0,0,1,.83.83l0,4,4.62,0,0-4a.81.81,0,0,1,.82-.82.84.84,0,0,1,.83.83l0,4,4.62,0,0-4a.81.81,0,0,1,.82-.82.84.84,0,0,1,.83.83l0,4,3.45,0,0-2.83a1.77,1.77,0,0,1,1.8-1.78h.38a1.83,1.83,0,0,1,1.82,1.8v1.6h2.38l0-2.58a1,1,0,0,1,1.06-1.05A1.08,1.08,0,0,1,73,32.77l0,3.8h1.18a.84.84,0,0,1,.83.83A.81.81,0,0,1,74.18,38.22ZM65.66,41a.66.66,0,0,0,.66.66h.38a.65.65,0,0,0,.65-.65l0-2.83H65.64Zm1-8h-.38a.65.65,0,0,0-.65.65l0,2.83h1.69l0-2.83A.67.67,0,0,0,66.64,33Z"/>
</svg>
