<?xml version="1.0" encoding="utf-8"?>
<!-- Generator: Adobe Illustrator 21.1.0, SVG Export Plug-In . SVG Version: 6.00 Build 0)  -->
<svg version="1.1" id="Слой_1" xmlns="http://www.w3.org/2000/svg" xmlns:xlink="http://www.w3.org/1999/xlink" x="0px" y="0px"
	 viewBox="0 0 50 50" style="enable-background:new 0 0 50 50;" xml:space="preserve">
<style type="text/css">
	.st0{fill:#FF7C2E;}
</style>
<path class="st0" d="M45.2,12.9h-6.8l-3.2-8H14.9l-3.2,8h-1.1v-4H5.8v4h-1c-2.1,0-3.8,1.7-3.8,3.8v23.5c0,2.1,1.7,3.9,3.9,3.9h40.3
	c2.1,0,3.9-1.7,3.9-3.9V16.7C49,14.6,47.3,12.9,45.2,12.9z M7.4,10.5H9v2.4H7.4V10.5z M47.4,40.2c0,1.3-1,2.3-2.3,2.3H4.9
	c-1.2,0-2.3-1-2.3-2.3V16.7c0-1.2,1-2.2,2.2-2.2h1h4.8h2.1l3.2-8h18.1l3.2,8h7.9c1.2,0,2.2,1,2.2,2.2V40.2z"/>
<path class="st0" d="M25,12.1c-7.9,0-14.4,6.5-14.4,14.4S17.1,40.9,25,40.9s14.4-6.5,14.4-14.4S32.9,12.1,25,12.1z M25,39.3
	c-7.1,0-12.8-5.7-12.8-12.8S17.9,13.7,25,13.7s12.8,5.7,12.8,12.8S32.1,39.3,25,39.3z"/>
<path class="st0" d="M25,16.9c-5.3,0-9.6,4.3-9.6,9.6s4.3,9.6,9.6,9.6s9.6-4.3,9.6-9.6S30.3,16.9,25,16.9z M25,34.5
	c-4.4,0-8-3.6-8-8s3.6-8,8-8s8,3.6,8,8S29.4,34.5,25,34.5z"/>
<path class="st0" d="M42.6,16.1c-1.8,0-3.2,1.4-3.2,3.2s1.4,3.2,3.2,3.2c1.8,0,3.2-1.4,3.2-3.2S44.4,16.1,42.6,16.1z M42.6,20.9
	c-0.9,0-1.6-0.7-1.6-1.6s0.7-1.6,1.6-1.6s1.6,0.7,1.6,1.6S43.5,20.9,42.6,20.9z"/>
</svg>
