<svg xmlns="http://www.w3.org/2000/svg" viewBox="0 0 35 36">
  <defs>
    <style>
      .\35 dc333ff-fe18-4357-a728-862c6e2d68b3 {
        fill: #f47b2c;
      }
    </style>
  </defs>
  <title>doc</title>
  <g id="feb4bc16-e713-4834-aed6-085d944766db" data-name="Слой 2">
    <g id="da2a87f8-9e3c-4035-aadf-75d393978946" data-name="Слой 1">
      <path class="5dc333ff-fe18-4357-a728-862c6e2d68b3" d="M27.05,19.09V2.9H2.9V33.1H14A1.45,1.45,0,0,1,14,36H1.45A1.45,1.45,0,0,1,0,34.55V1.45A1.45,1.45,0,0,1,1.45,0H28.5A1.45,1.45,0,0,1,30,1.45V19.09a1.45,1.45,0,1,1-2.9,0Zm7.46,3.53a1.45,1.45,0,0,0-2.05.12l-7.95,8.84-4-3.84a1.45,1.45,0,0,0-2,2.1l5.07,4.88a1.42,1.42,0,0,0,1,.41h0a1.45,1.45,0,0,0,1-.48l8.94-10A1.46,1.46,0,0,0,34.52,22.61ZM21.74,8.46H8.7a1.45,1.45,0,0,0,0,2.9h13a1.45,1.45,0,0,0,0-2.9Zm1.45,9.42a1.45,1.45,0,0,0-1.45-1.45H8.7a1.45,1.45,0,0,0,0,2.9h13A1.45,1.45,0,0,0,23.19,17.88ZM8.7,24.16a1.45,1.45,0,0,0,0,2.9h3.86a1.45,1.45,0,0,0,0-2.9Z"/>
    </g>
  </g>
</svg>
