<svg xmlns="http://www.w3.org/2000/svg" viewBox="0 0 17.72 31.47">
  <defs>
    <style>
      .\38 20ab8ad-12b2-4b95-a5cd-5cab119e2ee2 {
        fill: #f47b2a;
      }
    </style>
  </defs>
  <title>emmiter</title>
  <g id="e25bfcc2-8846-4cb0-b8a2-081920a9fb88" data-name="Слой 2">
    <g id="9ce56497-a042-4f69-b219-02f40bf94f11" data-name="Слой 1">
      <path class="820ab8ad-12b2-4b95-a5cd-5cab119e2ee2" d="M11.78,10.82a2.91,2.91,0,1,0-4.08,2.7,34.11,34.11,0,0,1-7.57,18,20.41,20.41,0,0,1,17.48,0,34.11,34.11,0,0,1-7.57-18A3,3,0,0,0,11.78,10.82ZM8.86,27.53A22.2,22.2,0,0,0,5,27.88a36.41,36.41,0,0,0,3.88-9.76,36.51,36.51,0,0,0,3.88,9.76A22.19,22.19,0,0,0,8.86,27.53Zm3.88-13.77a5,5,0,0,0-.62-6.59,4.81,4.81,0,0,0-6.53,0A5,5,0,0,0,5,13.77,5.75,5.75,0,0,1,3.63,7.52a5.61,5.61,0,0,1,10.46,0A5.76,5.76,0,0,1,12.75,13.77ZM3,15.73A9,9,0,0,1,.57,5.82a8.82,8.82,0,0,1,16.6,0,9.05,9.05,0,0,1-2.47,9.91,8.22,8.22,0,0,0-.18-11.43,8,8,0,0,0-11.29,0A8.22,8.22,0,0,0,3,15.73Z"/>
    </g>
  </g>
</svg>
