<svg xmlns="http://www.w3.org/2000/svg" viewBox="0 0 7.59 7.58">
  <title>Ресурс 2</title>
  <g id="0f430283-f97b-4c7e-8f97-4866b93124fb" data-name="Слой 2">
    <g id="a02a38ab-d2e7-48ee-b8f5-a2ff9d46a799" data-name="Слой 1">
      <path fill="#fff" d="M.45,2.75a.52.52,0,0,1-.16-.67l.25-.45a.51.51,0,0,1,.65-.22l.36.15a2.93,2.93,0,0,1,.57-.44L2.05.73A.5.5,0,0,1,2.42.16L2.93,0a.53.53,0,0,1,.63.31l.15.36a3.08,3.08,0,0,1,.75.09L4.69.46A.52.52,0,0,1,5.37.32l.46.26a.52.52,0,0,1,.23.65l-.14.35a3.24,3.24,0,0,1,.51.63h.4a.53.53,0,0,1,.59.38l.15.51a.5.5,0,0,1-.3.61l-.34.13a3,3,0,0,1-.08.78l.28.2a.52.52,0,0,1,.16.67L7,5.95a.51.51,0,0,1-.65.22L6.07,6a3,3,0,0,1-.61.48l.06.33a.5.5,0,0,1-.37.57l-.51.14A.54.54,0,0,1,4,7.25L3.88,7a3.12,3.12,0,0,1-.82-.1l-.19.26a.52.52,0,0,1-.68.14L1.73,7a.52.52,0,0,1-.23-.65L1.62,6a3.21,3.21,0,0,1-.53-.67H.76A.53.53,0,0,1,.17,5L0,4.49a.5.5,0,0,1,.3-.61l.34-.13A3,3,0,0,1,.76,3ZM3.13,5a1.35,1.35,0,1,0-.55-1.86A1.35,1.35,0,0,0,3.13,5l0,0Z"/>
    </g>
  </g>
</svg>
