<?xml version="1.0" encoding="UTF-8"?>
<!DOCTYPE svg  PUBLIC '-//W3C//DTD SVG 1.1//EN'  'http://www.w3.org/Graphics/SVG/1.1/DTD/svg11.dtd'>
<svg width="219.96" height="43.848" version="1.1" viewBox="0, 0, 219.958, 43.848" xmlns="http://www.w3.org/2000/svg">
<g transform="translate(-86.915 1.002)">
<path d="m109.25 0.498h7.595v3.765h-7.595zm0 3.765h7.595v3.765h-7.595z" fill-opacity="0" stroke="#fff" stroke-linecap="round" stroke-linejoin="round" stroke-width="1.5"/>
<path d="m113.05 4.263h-24.636" fill-opacity="0" stroke="#fff" stroke-linecap="round" stroke-width="1.5"/>
<path d="m105.55 1.957v4.613m-3.603-4.613v4.613m-3.603-4.613v4.613m-3.603-4.613v4.613m-3.603-4.613v4.613" fill-opacity="0" stroke="#fff" stroke-linecap="round" stroke-width="1.5"/>
<path d="m113.05 3.486v12.594" fill-opacity="0" stroke="#fff" stroke-width="1.5"/>
<path d="m154.34 18.652l-7.964-5.167v-3.717c0-1.599-1.308-2.906-2.906-2.906h-0.281c-1.521 0-2.777 1.185-2.895 2.677l-9.723-6.308c-0.853-0.554-1.952-0.554-2.805 0l-23.77 15.421c-2.153 1.397-1.164 4.739 1.402 4.739h1.318v16.878c0 1.423 1.153 2.577 2.576 2.577h39.752c1.423 0 2.576-1.154 2.576-2.577v-16.878h1.318c2.566 0 3.555-3.342 1.402-4.739" fill="#E67844"/>
<path d="m117.96 9.589l-13.969 9.063c-2.153 1.397-1.164 4.738 1.403 4.738h1.317v16.878c0 1.424 1.153 2.577 2.577 2.577h19.947l-11.275-33.256" fill="#F5BB64"/>
<path d="m141.63 25.3h-24.922c-0.327 0-0.593 0.265-0.593 0.592v10.523c0 0.328 0.266 0.593 0.593 0.593h24.922c0.328 0 0.593-0.265 0.593-0.593v-10.523c0-0.327-0.265-0.592-0.593-0.592" fill="#FFFFFE"/>
<path d="m123.51 34.858v-5.306h-1.935v-1.902h6.041v1.902h-1.923v5.306h-2.183" fill="#000206"/>
<path d="m131.35 34.858l-2.659-7.208h2.475l1.556 4.852 1.556-4.852h2.475l-2.659 7.208h-2.744" fill="#000206"/>
<path d="m171.3 35.858h3.683l-1.841-4.385-1.842 4.385zm-0.93 2.392l-1.025 2.202h-2.961v-0.38l6.112-13.021h1.31l6.074 13.021v0.38h-2.942l-1.044-2.202h-5.524" fill="#fff"/>
<path d="m189.24 40.453v-5.618h-5.086v5.618h-2.828v-13.287h2.828v5.068h5.086v-5.068h2.848v13.287h-2.848" fill="#fff"/>
<path d="m193.96 29.632v-2.468h9.832v2.468h-3.53v10.82h-2.753v-10.82h-3.549" fill="#fff"/>
<path d="m213.82 29.65h-5.277v2.695h4.936v2.487h-4.936v3.037h5.429v2.582h-8.295v-13.288h8.143v2.487" fill="#fff"/>
<path d="m224.45 40.453v-5.618h-5.087v5.618h-2.828v-13.287h2.828v5.068h5.087v-5.068h2.847v13.287h-2.847" fill="#fff"/>
<path d="m238.29 40.453v-5.618h-5.087v5.618h-2.828v-13.287h2.828v5.068h5.087v-5.068h2.848v13.287h-2.848" fill="#fff"/>
<path d="m247.48 35.858h3.683l-1.841-4.385-1.842 4.385zm-0.929 2.392l-1.025 2.202h-2.962v-0.38l6.113-13.021h1.309l6.075 13.021v0.38h-2.943l-1.044-2.202h-5.523" fill="#fff"/>
<path d="m258.52 30.921v1.772h1.838c0.564 0 0.896-0.332 0.93-0.853 0.011-0.309-0.111-0.597-0.344-0.763-0.188-0.134-0.409-0.156-0.663-0.156h-1.761zm0-3.11v1.76h1.517c0.564 0 0.919-0.31 0.929-0.83 0.012-0.565-0.354-0.93-0.929-0.93h-1.517zm3.299 2.303c0.719 0.298 1.107 0.929 1.107 1.726 0 1.362-0.908 2.292-2.458 2.292h-3.597v-7.738h3.288c1.416 0 2.435 0.841 2.435 2.291 0 0.565-0.288 1.129-0.775 1.429" fill="#fff"/>
<path d="m268.57 36.297c-0.057 0.589-0.323 1.424-0.892 1.803h4.992v-8.484h-3.398l-0.702 6.681zm-4.328 1.747c1.139-0.02 1.367-0.589 1.519-1.861l1.044-9.016h8.655v10.877h1.424v4.289h-2.544v-1.878h-7.877v1.878h-2.676v-4.289h0.455" fill="#fff"/>
<path d="m285.03 38.078c2.069 0 3.948-1.367 3.948-4.272 0-2.827-1.86-4.232-3.929-4.232-2.088 0-3.948 1.424-3.948 4.232 0 2.905 1.803 4.272 3.929 4.272zm-0.038 2.6c-3.549 0-6.757-2.392-6.757-6.872 0-4.479 3.283-6.851 6.814-6.851 3.474 0 6.757 2.391 6.757 6.851 0 4.043-2.79 6.872-6.814 6.872" fill="#fff"/>
<path d="m305.85 27.129h1.025v13.326h-2.847v-7.195l-3.341 4.177h-0.361l-3.341-4.177v7.195h-2.846v-13.326h1.043l5.334 6.321 5.334-6.321" fill="#fff"/>
</g>
</svg>
