<svg xmlns="http://www.w3.org/2000/svg" viewBox="0 0 45 36">
  <defs>
    <style>
      .a26dfde8-83fd-4fed-9f59-e657d0986be8 {
        fill: #f47b32;
      }
    </style>
  </defs>
  <title>screen</title>
  <g id="c87c8e1b-39c2-4038-ad3f-e436b5ebf173" data-name="Слой 2">
    <g id="a9d5a4b5-bfc4-44e9-b7d7-8649c6acc1fa" data-name="Слой 1">
      <path class="a26dfde8-83fd-4fed-9f59-e657d0986be8" d="M44.25,0H.75A.75.75,0,0,0,0,.75v28.5A.75.75,0,0,0,.75,30h19.5v2.25H16.5V36h12V32.25H24.75V30h19.5a.75.75,0,0,0,.75-.75V.75A.75.75,0,0,0,44.25,0ZM14.39,21a4.07,4.07,0,0,1,.85-.62l3.51-2,.44-.22a5.5,5.5,0,0,0,1.06-.6v-1a6.71,6.71,0,0,1-2.74-3.1,2,2,0,0,1-1-1.53V10.16a1.39,1.39,0,0,1,.36-.9,1.56,1.56,0,0,0,.39-1V7.5c0-1.83,1.36-5.25,6-5.25s6,3.42,6,5.23v.79a1.56,1.56,0,0,0,.39,1,1.39,1.39,0,0,1,.36.9v1.68a2.12,2.12,0,0,1-1.38,1.78A11.5,11.5,0,0,1,27.24,16a3.57,3.57,0,0,1-.89.73l-.11.07v1l.28.06a3.34,3.34,0,0,1,.81.25l.07,0,3.47,2.24a4.19,4.19,0,0,1,.84.58l.06.06H14.34ZM3.75,26.25v-3H9v3Zm37.5,0H10.5v-3H41.25Zm0-18.75h-4.5V3h4.5Z"/>
    </g>
  </g>
</svg>
