<svg xmlns="http://www.w3.org/2000/svg" viewBox="0 0 52 36">
  <defs>
    <style>
      .b0ba1c03-8ddf-44fb-90a4-418d719fb90a {
        fill: #f47b2e;
      }
    </style>
  </defs>
  <title>speed</title>
  <g id="239a4c76-7db1-481f-80c6-6bd15855bedd" data-name="Слой 2">
    <g id="a425061a-7eac-441c-a1dd-d3e487c5525b" data-name="Слой 1">
      <path class="b0ba1c03-8ddf-44fb-90a4-418d719fb90a" d="M37.11,12.42a.62.62,0,0,1,.16-.45l5-5.63a.64.64,0,0,1,.89-.06,25.78,25.78,0,0,1,5.67,7,.62.62,0,0,1-.25.85l-6.64,3.59a.63.63,0,0,1-.86-.25,17,17,0,0,0-3.75-4.63A.62.62,0,0,1,37.11,12.42Z"/>
      <path class="b0ba1c03-8ddf-44fb-90a4-418d719fb90a" d="M34.88,10.33a.63.63,0,0,1-.85.26,17.12,17.12,0,0,0-5.69-1.81.63.63,0,0,1-.54-.7l1-7.43a.63.63,0,0,1,.71-.53,26,26,0,0,1,8.65,2.75.62.62,0,0,1,.26.84Z"/>
      <path class="b0ba1c03-8ddf-44fb-90a4-418d719fb90a" d="M43,20.38l7.31-2a.64.64,0,0,1,.48.06.63.63,0,0,1,.3.38A25.55,25.55,0,0,1,52,25.61c0,.39,0,.78,0,1.2a.63.63,0,0,1-.63.6h0l-7.56-.35a.63.63,0,0,1-.44-.2.62.62,0,0,1-.16-.45c0-.28,0-.54,0-.8a16.87,16.87,0,0,0-.6-4.46A.62.62,0,0,1,43,20.38Z"/>
      <path class="b0ba1c03-8ddf-44fb-90a4-418d719fb90a" d="M14.72,2.42A26,26,0,0,1,23.47,0a.63.63,0,0,1,.46.14.62.62,0,0,1,.23.42L24.89,8a.63.63,0,0,1-.57.68,17.13,17.13,0,0,0-5.76,1.59.64.64,0,0,1-.27.06.63.63,0,0,1-.57-.35L14.43,3.26A.62.62,0,0,1,14.72,2.42Z"/>
      <path class="b0ba1c03-8ddf-44fb-90a4-418d719fb90a" d="M3.6,12.9a.62.62,0,0,1,.07-.47A25.83,25.83,0,0,1,9.6,5.64a.64.64,0,0,1,.46-.14.63.63,0,0,1,.42.23l4.78,5.81a.62.62,0,0,1-.09.88,17.08,17.08,0,0,0-3.93,4.49.64.64,0,0,1-.87.22l-6.5-3.85A.62.62,0,0,1,3.6,12.9Z"/>
      <path class="b0ba1c03-8ddf-44fb-90a4-418d719fb90a" d="M1.19,17.91A.63.63,0,0,1,2,17.5L9.2,19.74a.62.62,0,0,1,.41.78,16.83,16.83,0,0,0-.78,5.09c0,.26,0,.52,0,.8a.62.62,0,0,1-.16.45.63.63,0,0,1-.44.2l-7.56.35h0a.63.63,0,0,1-.63-.6c0-.42,0-.81,0-1.2A25.47,25.47,0,0,1,1.19,17.91Z"/>
      <path class="b0ba1c03-8ddf-44fb-90a4-418d719fb90a" d="M26,24.29h.32l10.25-6a.65.65,0,0,1,.78.09.64.64,0,0,1,.12.77L31.91,29.54a6,6,0,0,1,0,.61,5.79,5.79,0,0,1-1.73,4.14,6,6,0,0,1-8.37,0,5.81,5.81,0,0,1,0-8.28A5.91,5.91,0,0,1,26,24.29Z"/>
    </g>
  </g>
</svg>
