<svg xmlns="http://www.w3.org/2000/svg" viewBox="0 0 36 36">
  <defs>
    <style>
      .\31 57a4024-01fa-4e6e-ab5f-f5ff762f862b {
        fill: #f47b30;
      }
    </style>
  </defs>
  <title>stick</title>
  <g id="60682c26-2d63-4ee1-b4b5-83e8003a0360" data-name="Слой 2">
    <g id="07a3affb-a94d-4daa-aa3a-e7a07ab3d7e4" data-name="Слой 1">
      <path class="157a4024-01fa-4e6e-ab5f-f5ff762f862b" d="M11.14,6.17l4.29,2.4L13,4.29,15.43,0,11.14,2.4,6.86,0l2.4,4.29L6.86,8.57Z"/>
      <path class="157a4024-01fa-4e6e-ab5f-f5ff762f862b" d="M31.71,23l-4.29-2.4,2.4,4.29-2.4,4.29,4.29-2.4L36,29.14l-2.4-4.29L36,20.57Z"/>
      <path class="157a4024-01fa-4e6e-ab5f-f5ff762f862b" d="M36,0,31.71,2.4,27.43,0l2.4,4.29-2.4,4.28,4.29-2.4L36,8.57,33.6,4.29Z"/>
      <path class="157a4024-01fa-4e6e-ab5f-f5ff762f862b" d="M23,9.09a1.66,1.66,0,0,0-2.4,0L.51,29.14a1.66,1.66,0,0,0,0,2.4l3.94,3.94a1.66,1.66,0,0,0,2.4,0L26.91,15.43a1.66,1.66,0,0,0,0-2.4Zm-1.89,9.43-3.6-3.6L21.6,10.8l3.6,3.6Z"/>
    </g>
  </g>
</svg>
