<svg xmlns="http://www.w3.org/2000/svg" viewBox="0 0 33 25">
  <defs>
    <style>
      .\38 ef10575-b068-4aaa-9594-60cdbaafe7a3 {
        fill: #fff;
      }
    </style>
  </defs>
  <title>Ресурс 3</title>
  <g id="c2384864-6cad-459b-917d-c57354139b84" data-name="Слой 2">
    <g id="e0639c90-3678-4f6c-9710-806abc6efc9f" data-name="Слой 1">
      <path class="8ef10575-b068-4aaa-9594-60cdbaafe7a3" d="M31.77,0H1.23A1.24,1.24,0,0,0,0,1.24V21.64a1.24,1.24,0,0,0,1.23,1.24h14v1.61H12.43a1.24,1.24,0,0,0-1.23,1.24H21.81a1.24,1.24,0,0,0-1.23-1.24H17.74V22.88h14A1.24,1.24,0,0,0,33,21.64V1.24A1.24,1.24,0,0,0,31.77,0ZM31,19.71a1.05,1.05,0,0,1-1.09,1H3.05a1.05,1.05,0,0,1-1.09-1V3.05A1.05,1.05,0,0,1,3.05,2H30a1.05,1.05,0,0,1,1.09,1Z"/>

      <path class="8ef10575-b068-4aaa-9594-60cdbaafe7a3" d="M8,9.7h2.2v6.07H12.7V9.7h2.19V7.53H8Z"/>
      <path class="8ef10575-b068-4aaa-9594-60cdbaafe7a3" d="M20.41,13.08,18.63,7.53H15.81l3,8.24H22l3-8.24H22.18Z"/>
    </g>
  </g>
</svg>
