<svg id="c4180bf0-12e3-48bd-8128-1d976c51b042" data-name="Слой 1" xmlns="http://www.w3.org/2000/svg" width="40" height="40" viewBox="0 0 40 40">
  <defs>
    <style>
      .\34 fcb0967-a5af-400d-9b3c-33763d6314d9 {
        fill: #fff;
        fill-rule: evenodd;
      }

      .cbe1afae-198d-416e-87a2-30c38ad03dd9 {
        fill: #fff;
      }
    </style>
  </defs>
  <title>van</title>
  <path class="4fcb0967-a5af-400d-9b3c-33763d6314d9" d="M425.5,537.5s-1.15,2.22,0,3,4-1,4-1,3,11.22-4,12-18.74,2.09-19-1,0-11,0-11Z" transform="translate(-31.5 -31.5)"/>
  <path id="wheel-1" class="cbe1afae-198d-416e-87a2-30c38ad03dd9" d="M59.09,60.29a3.6,3.6,0,1,1-3.6,3.6A3.61,3.61,0,0,1,59.09,60.29Zm0,6a2.4,2.4,0,1,0-2.4-2.4A2.4,2.4,0,0,0,59.09,66.3Z" transform="translate(-31.5 -31.5)"/>
  <path id="wheel-2" class="cbe1afae-198d-416e-87a2-30c38ad03dd9" d="M39.9,60.29a3.6,3.6,0,1,1-3.6,3.6A3.61,3.61,0,0,1,39.9,60.29Zm0,6a2.4,2.4,0,1,0-2.4-2.4A2.4,2.4,0,0,0,39.9,66.3Z" transform="translate(-31.5 -31.5)"></path>
  <path id="left-part" class="cbe1afae-198d-416e-87a2-30c38ad03dd9" d="M55.49,43.87a7.67,7.67,0,0,1-6.31-1.24.6.6,0,0,1-.08-.91l1.55-1.55L49.5,32.75s0,0,0,0a.62.62,0,0,1,0-.09s0,0,0,0v0l0-.07,0-.08,0-.07,0-.05,0,0,0,0,0,0,.07,0,.09,0,.06,0h.21l7.4,1.16,1.55-1.55a.59.59,0,0,1,.47-.17.6.6,0,0,1,.44.25,7.78,7.78,0,0,1-.84,10l-.12.11v4.58h5.6a2.8,2.8,0,0,1,2.79,2.8V61.7a2.8,2.8,0,0,1-2.79,2.8h-.21a.6.6,0,0,1-.6-.6,4.8,4.8,0,1,0-9.6,0,.6.6,0,0,1-.6.6H51.9v-18h3.6Zm-3.79-4.75,2-2L51,34.39Zm.11-5.57,2.73,2.73,2-2Zm6.07,9.31h0a7.72,7.72,0,0,1-1.19.63v3h1.2Zm-3.6,6.63a.6.6,0,0,0-.6.6v4.81a.6.6,0,0,0,.6.6h9.6a.6.6,0,0,0,.6-.6V50.08a.6.6,0,0,0-.6-.6Z" transform="translate(-31.5 -31.5)">
		<animateTransform
			attributeName="transform"
			type="translate"
			from="-31.5 -31.5"
			to="-31.5 -30.5"
			dur=".5s"
			repeatCount="indefinite"
			values="-31.5 -31.5;-31.5 -30.5;-31.5 -31.5"
			/>
	</path>
  <path class="cbe1afae-198d-416e-87a2-30c38ad03dd9" d="M39.9,62.69a1.2,1.2,0,1,1-1.2,1.2A1.2,1.2,0,0,1,39.9,62.69Z" transform="translate(-31.5 -31.5)"/>
  <path class="cbe1afae-198d-416e-87a2-30c38ad03dd9" d="M59.09,62.69a1.2,1.2,0,1,1-1.2,1.2A1.2,1.2,0,0,1,59.09,62.69Z" transform="translate(-31.5 -31.5)"/>
  <path class="cbe1afae-198d-416e-87a2-30c38ad03dd9" d="M63.29,50.68h-8.4v3.6h8.4Z" transform="translate(-31.5 -31.5)">
		<animateTransform
			attributeName="transform"
			type="translate"
			from="-31.5 -31.5"
			to="-31.5 -30.5"
			dur=".5s"
			repeatCount="indefinite"
			values="-31.5 -31.5;-31.5 -30.5;-31.5 -31.5"
			/>
  </path>
  <path class="cbe1afae-198d-416e-87a2-30c38ad03dd9" d="M31.53,57.29h3v.78a.42.42,0,0,1-.42.42H31.5v-.82A2.76,2.76,0,0,1,31.53,57.29Z" transform="translate(-31.5 -31.5)"/>
  <path id="rith-part" class="cbe1afae-198d-416e-87a2-30c38ad03dd9" d="M35.7,58.07V56.69a.6.6,0,0,0-.6-.6H32A2.79,2.79,0,0,1,33.37,55l3.73-1.82,4.05-5.58a2.8,2.8,0,0,1,2.26-1.15H50.7v18H45.3a.6.6,0,0,1-.6-.6,4.8,4.8,0,1,0-9.6,0,.6.6,0,0,1-.6.6h-.21a2.8,2.8,0,0,1-2.79-2.8v-2h2.58A1.63,1.63,0,0,0,35.7,58.07Zm10.8-.18h2.4a.6.6,0,0,0,0-1.2H46.5a.6.6,0,0,0,0,1.2ZM40,55.15a.6.6,0,0,0,.54.33h8.4a.6.6,0,0,0,.6-.6V50.08a.6.6,0,0,0-.6-.6H44.1a.6.6,0,0,0-.48.24L40,54.53A.6.6,0,0,0,40,55.15Z" transform="translate(-31.5 -31.5)">
		<animateTransform
			attributeName="transform"
			type="translate"
			from="-31.5 -31.5"
			to="-31.5 -30.5"
			dur=".5s"
			repeatCount="indefinite"
			values="-31.5 -31.5;-31.5 -30.5;-31.5 -31.5"
			/>
  </path>
  <path class="cbe1afae-198d-416e-87a2-30c38ad03dd9" d="M48.3,50.68v3.6H41.7l2.7-3.6Z" transform="translate(-31.5 -31.5)">
		<animateTransform
			attributeName="transform"
			type="translate"
			from="-31.5 -31.5"
			to="-31.5 -30.5"
			dur=".5s"
			repeatCount="indefinite"
			values="-31.5 -31.5;-31.5 -30.5;-31.5 -31.5"
			/>
  </path>
</svg>
