<svg xmlns="http://www.w3.org/2000/svg" viewBox="0 0 49.99 64">
  <defs>
    <style>
      .aeec79f1-6dd1-46d7-94bd-22295cdc4f1b {
        fill: #f47b2b;
      }
    </style>
  </defs>
  <title>zero</title>
  <g id="0b302209-4c99-4b0c-b22f-f9600677a0b2" data-name="Слой 2">
    <g id="0005b9fa-80a9-4851-bc30-c97d08447608" data-name="Слой 1">
      <path class="aeec79f1-6dd1-46d7-94bd-22295cdc4f1b" d="M35.09,12.42q-3.3-4.86-9.73-4.86-6.62,0-9.8,4.65T12.38,26.65q0,9.4,3.27,14.21t9.71,4.81q6.64,0,9.83-4.66t3.19-14.36Q38.39,17.28,35.09,12.42Zm-13.7,4.44q1.2-3,4-3t4,3q1.23,3,1.23,9.79t-1.22,9.72q-1.22,3-4,3a4.09,4.09,0,0,1-4-2.95q-1.18-2.95-1.18-9.76T21.39,16.86Z"/>
      <path class="aeec79f1-6dd1-46d7-94bd-22295cdc4f1b" d="M18.51,54a2.17,2.17,0,0,0-1.95,1h-.09l-.26-.89H14.69V64h1.87V61.23q0-.13-.1-1h.1a2.28,2.28,0,0,0,1.9.87,2.36,2.36,0,0,0,1.4-.42,2.67,2.67,0,0,0,.92-1.23,5.11,5.11,0,0,0,.32-1.9,4.31,4.31,0,0,0-.69-2.6A2.23,2.23,0,0,0,18.51,54Zm-.58,5.58a1.18,1.18,0,0,1-1-.48,2.87,2.87,0,0,1-.33-1.58v-.2a2.43,2.43,0,0,1,.33-1.4,1.18,1.18,0,0,1,1-.43,1.06,1.06,0,0,1,1,.5,2.94,2.94,0,0,1,.31,1.51Q19.19,59.6,17.93,59.6Z"/>
      <path class="aeec79f1-6dd1-46d7-94bd-22295cdc4f1b" d="M25.54,58a5.23,5.23,0,0,0-.26,1.19h0A5.31,5.31,0,0,0,25,58l-1.3-3.85H21.67l2.73,6.79-.11.34a2,2,0,0,1-.58.91,1.34,1.34,0,0,1-.87.3,3.19,3.19,0,0,1-.74-.08V63.9a4.36,4.36,0,0,0,1,.1,2.89,2.89,0,0,0,1.73-.53,3.35,3.35,0,0,0,1.14-1.6l2.91-7.71h-2Z"/>
      <path class="aeec79f1-6dd1-46d7-94bd-22295cdc4f1b" d="M32.1,53.76a3.08,3.08,0,0,1,1.16-.37q2-.3,2.83-.39l-.22-1.63q-1.84.24-2.77.4a4.19,4.19,0,0,0-2.81,1.54,6,6,0,0,0-.9,3.57,4.89,4.89,0,0,0,.88,3.1,3,3,0,0,0,2.45,1.12,3.28,3.28,0,0,0,2.47-.92,3.55,3.55,0,0,0,.89-2.58,3.17,3.17,0,0,0-.71-2.22,2.54,2.54,0,0,0-2-.77,2.52,2.52,0,0,0-1.15.27,2.17,2.17,0,0,0-.86.77H31.3a3.77,3.77,0,0,1,.23-1.2A1.47,1.47,0,0,1,32.1,53.76Zm-.4,2.79a2.39,2.39,0,0,1,.6-.4A1.55,1.55,0,0,1,33,56q1.2,0,1.2,1.78T32.84,59.6a1.26,1.26,0,0,1-1.14-.66,3.69,3.69,0,0,1-.4-1.9A1.8,1.8,0,0,1,31.7,56.55Z"/>
      <path class="aeec79f1-6dd1-46d7-94bd-22295cdc4f1b" d="M3.39,37.33,0,36.34l1,3.38L0,43.1l3.39-1,3.39,1-1-3.38,1-3.38Z"/>
      <path class="aeec79f1-6dd1-46d7-94bd-22295cdc4f1b" d="M6.79,11.21l-2.23-.65.65,2.22L4.56,15l2.23-.65L9,15l-.65-2.22L9,10.56Z"/>
      <path class="aeec79f1-6dd1-46d7-94bd-22295cdc4f1b" d="M35.75,0,34.7,1.91,32.77,3,34.7,4l1.05,1.91L36.8,4l1.92-1-1.92-1Z"/>
      <path class="aeec79f1-6dd1-46d7-94bd-22295cdc4f1b" d="M50,27.9l-3,.88-3-.88.88,3-.88,3L47,33l3,.88-.88-3Z"/>
    </g>
  </g>
</svg>
